<?xml version="1.0" encoding="UTF-8"?>
<svg  width="150" height="90" viewBox="0 0 1008 426" xmlns="http://www.w3.org/2000/svg">
  <g fill="none" fill-rule="evenodd">
    <g>
      <circle fill="#000" cx="213" cy="213" r="213"/>
      <path d="M328 196.857V168H99v28.857h229zM328 269v-28.857H99V269h229z" fill="#FFF" fill-rule="nonzero"/>
    </g>
    <path d="M568.928 285.722c17.567 0 30.706-8.312 39.417-24.935V283h21.56V111.068h-21.56v67.183c-9.22-10.744-20.834-16.115-34.844-16.115-15.099 0-27.276 5.989-36.532 17.966-9.255 11.978-13.883 27.802-13.883 47.475 0 18.002 4.084 32.194 12.25 42.574 8.167 10.38 19.364 15.571 33.592 15.571zm4.464-18.837c-18.293 0-27.44-13.829-27.44-41.486 0-31.432 10.272-47.148 30.816-47.148 9.945 0 20.47 4.9 31.577 14.7v54.443c-11.397 12.994-23.048 19.49-34.953 19.49zm120.864-123.587v-21.45h-21.45v21.45h21.45zm0 139.702V164.749h-21.45V283h21.45zm78.508 2.722c4.863 0 10.598-.907 17.204-2.722v-14.809c-4.065.944-7.513 1.416-10.344 1.416-13.357 0-20.036-7.731-20.036-23.193v-65.55h30.924V164.75h-30.924v-23.52l-21.45 2.07v21.45h-14.809v16.115h14.809v69.47c0 11.106 3.049 19.781 9.146 26.024 6.098 6.243 14.591 9.364 25.48 9.364zm83.407 0c4.864 0 10.598-.907 17.204-2.722v-14.809c-4.065.944-7.513 1.416-10.344 1.416-13.357 0-20.035-7.731-20.035-23.193v-65.55h30.923V164.75h-30.923v-23.52l-21.451 2.07v21.45h-14.809v16.115h14.809v69.47c0 11.106 3.049 19.781 9.146 26.024 6.098 6.243 14.591 9.364 25.48 9.364zm94.187 0c17.785 0 31.759-5.517 41.921-16.55 10.163-11.034 15.244-26.206 15.244-45.515 0-18.874-5.063-33.846-15.19-44.916-10.126-11.07-23.864-16.605-41.213-16.605-17.35 0-31.087 5.535-41.214 16.605-10.126 11.07-15.19 26.115-15.19 45.134 0 18.8 5.046 33.809 15.136 45.024 10.09 11.216 23.592 16.823 40.506 16.823zm.327-16.115c-22.068 0-33.102-15.244-33.102-45.732 0-30.416 11.179-45.624 33.537-45.624 22.43 0 33.646 15.135 33.646 45.406 0 30.633-11.36 45.95-34.081 45.95z" fill="#000" fill-rule="nonzero"/>
  </g>
</svg>